# xmcd
#
# Track frame offsets:
#	150
#	16075
#	27145
#	41630
#	55091
#	69899
#	81152
#	91197
#	103638
#	113895
#	123555
#	138612
#	153328
#	165344
#	177286
#	187901
#	197893
#	207672
#	219488
#	234630
#	247404
#	260880
#	271881
#	284333
#	295927
#	309458
#	323843
#	334708
#
# Disc length: 4573 seconds
#
# Revision: 1
# Processed by: cddbd v1.5PL3 Copyright (c) Steve Scherf et al.
# Submitted via: audiograbber 1.80
#
DISCID=9d11db1c
DTITLE=frankie laine - `I Believe cd3
DYEAR=1900
DGENRE=
TTITLE0=Do You Know What It Means To Miss New Orleans 
TTITLE1=Floatin' Down To Cotton Town 
TTITLE2=New Orleans 
TTITLE3=Way Down Yander In New Orleans 
TTITLE4=Basin Street Blues (& Jo Stafford) 
TTITLE5=Some Day, Sweetheart 
TTITLE6=Laughing At Life 
TTITLE7=Lullaby In Rhythm 
TTITLE8=After You've Gone (& Carl Fischer) 
TTITLE9=Sittin' In The Sun (Countin' My Money) 
TTITLE10=Willow Weep For Me 
TTITLE11=A Hundred Years From Today 
TTITLE12=Judy 
TTITLE13=Answer Me, O Lord 
TTITLE14=Hey Joe! 
TTITLE15=Goin' Like Wildfire (& Jo Stafford) 
TTITLE16=Rollin' Down The Line (& Jo Stafford) 
TTITLE17=Blowing Wild (The Ballad Of Black Gold) 
TTITLE18=The Kid's Last Fight 
TTITLE19=Ace In The Hole 
TTITLE20=The Lord Don't Treat His Chillum That Way 
TTITLE21=Answer Me, My Love 
TTITLE22=Drill Ye Tarriers 
TTITLE23=Long Distance Love 
TTITLE24=Old Shoes 
TTITLE25=There Must Be A Reason 
TTITLE26=Juba, Juba, Jubalee (& The Four Lads) 
TTITLE27=What Would I Do? (& The Four Lads) 
EXTD=
EXTT0=
EXTT1=
EXTT2=
EXTT3=
EXTT4=
EXTT5=
EXTT6=
EXTT7=
EXTT8=
EXTT9=
EXTT10=
EXTT11=
EXTT12=
EXTT13=
EXTT14=
EXTT15=
EXTT16=
EXTT17=
EXTT18=
EXTT19=
EXTT20=
EXTT21=
EXTT22=
EXTT23=
EXTT24=
EXTT25=
EXTT26=
EXTT27=
PLAYORDER=
